<svg width="528" height="307" viewBox="0 0 528 307" fill="none" xmlns="http://www.w3.org/2000/svg">
<g clip-path="url(#clip0_1095_26235)">
<path d="M470.227 224.026H481.552C486.674 224.026 491.557 222.407 495.664 219.343C499.771 216.279 502.718 212.064 504.182 207.15L506.761 198.508L500.774 196.719L498.195 205.361C496.016 212.666 489.17 217.769 481.552 217.769H470.227V224.023V224.026Z" fill="#131F2D"/>
<path d="M406.931 305.397C406.879 305.423 406.822 305.445 406.754 305.471H371.844C372.171 304.227 373.311 301.964 377.306 301.314C382.723 300.432 392.11 297.285 394.205 290.351C394.27 290.13 394.33 289.899 394.385 289.669C396.048 282.261 408.138 291.938 408.138 291.938C408.138 291.938 408.177 292.233 408.225 292.736C408.507 295.454 409.224 304.247 406.927 305.397H406.931Z" fill="#F5A011"/>
<path d="M360.762 179.952C360.762 179.952 383.466 260.641 390.303 291.845C390.303 291.845 407.154 295.227 409.775 289.928C409.775 289.928 404.345 202.06 394.359 190.898C381.935 177.013 360.762 179.952 360.762 179.952Z" fill="#131F2D"/>
<path d="M358.887 98.1674C358.887 98.1674 359.483 94.5582 358.554 91.5516C357.625 88.5449 353.739 80.6181 354.969 77.8615C356.199 75.108 360.652 67.694 363.398 67.7165C366.143 67.7389 360.511 75.6498 361.283 78.1211C362.055 80.5924 362.312 80.7944 363.266 80.5764C364.221 80.3584 365.672 75.6273 366.156 76.7332C366.64 77.839 366.358 85.1601 365.451 86.9871C364.545 88.8142 366.406 99.1226 366.406 99.1226L358.89 98.1706L358.887 98.1674Z" fill="#EF6343"/>
<path d="M356.688 96.5616C356.688 96.5616 362.765 93.1062 367.468 94.5646C367.468 94.5646 376.797 121.451 381.936 141.222C391.8 116.871 397.868 92.5869 397.868 92.5869C397.868 92.5869 409.827 109.111 414.142 120.099C418.458 131.087 392.659 169.634 382.65 172.657C372.203 175.814 374.103 172.65 368.208 169.275C366.311 166.813 360.247 154.559 356.688 96.5648V96.5616Z" fill="#DC8B02"/>
<path d="M329.188 306.657C329.137 306.683 329.079 306.705 329.012 306.731H294.102C294.428 305.487 295.572 303.224 299.564 302.573C304.981 301.692 314.368 298.544 316.463 291.611C316.527 291.39 316.588 291.159 316.643 290.928C318.305 283.521 330.396 293.198 330.396 293.198C330.396 293.198 330.435 293.493 330.486 293.996C330.768 296.714 331.485 305.506 329.188 306.657Z" fill="#F5A011"/>
<path d="M353.987 177.991C353.987 177.991 357.386 179.504 361.586 182.6C362.064 180.167 362.752 178.587 362.752 178.587C392.71 170.779 472.905 171.416 472.905 171.416C472.905 171.416 490.147 175.737 485.082 200.848C480.424 223.955 403.426 213.256 378.556 206.323C377.973 206.159 377.413 205.989 376.865 205.813C378.845 220.535 364.985 241.54 352.856 260.868C342.858 276.802 334.345 292.932 334.345 292.932C329.322 296.047 312.461 294.246 312.461 294.246C323.116 264.131 353.99 177.991 353.99 177.991H353.987Z" fill="#364154"/>
<path d="M420.104 84.4261C420.104 84.4261 411.502 111.973 398.585 118.137C398.585 118.137 397.361 109.78 399.453 103.424C397.749 102.116 396.237 100.905 394.917 99.8118C390.534 96.1641 388.32 93.8274 388.32 93.8274L390.239 80.3937L391.543 71.2809C393.645 73.6913 395.814 75.6594 397.976 77.2781C409.128 85.5992 420.101 84.4261 420.101 84.4261H420.104Z" fill="#FF7955"/>
<path d="M397.98 77.2781C397.98 77.2781 402.312 89.202 394.921 99.8118C390.538 96.1641 388.324 93.8274 388.324 93.8274L390.243 80.3937C394.869 77.807 397.98 77.2781 397.98 77.2781Z" fill="#EF6343"/>
<path d="M385.047 96.4365C385.047 96.4365 404.093 83.7946 396.042 72.0469C387.991 60.2993 385.025 50.7569 372.524 58.3344C360.023 65.9086 360.757 71.9956 362.493 76.5729C364.226 81.1469 379.886 99.4239 385.05 96.4397L385.047 96.4365Z" fill="#FF7955"/>
<path d="M393.828 47.4554C393.912 47.1349 394.267 46.7342 395.232 46.1957C395.232 46.1957 394.194 46.0803 393.12 46.5739C392.227 45.2758 390.279 43.1538 387.61 43.7148C387.61 43.7148 389.225 43.7789 390.119 45.1892C385.967 43.6699 379.053 44.468 363.384 53.77C342.736 66.0305 356.666 76.5409 360.263 76.8422C363.861 77.1435 368.628 69.1429 374.017 67.0177C379.405 64.8958 384.118 72.0245 386.39 72.204C388.661 72.3867 387.062 70.877 388.908 68.6204C390.753 66.3606 392.941 70.2552 393.527 73.1977C394.117 76.1402 399.067 77.9737 399.067 77.9737L400.601 72.7393C402.136 67.505 397.75 50.664 394.649 48.135C394.376 47.9106 394.101 47.683 393.822 47.4554H393.828Z" fill="#131F2D"/>
<path d="M396.926 130.327C402.644 143.882 407.876 152.54 408.561 153.672C411.028 157.749 413.674 161.489 416.093 164.759C416.17 164.865 416.247 164.964 416.321 165.07C421.088 171.487 428.376 173.253 428.152 174.862C427.697 178.09 435.844 185.834 449.28 189.267C464.873 193.255 482.938 195.171 487.503 189.899C489.032 188.129 489.538 184.873 489.368 180.824C489.035 172.298 478.306 137.959 478.306 137.959C459.955 82.3971 407.405 82.3971 407.405 82.3971C407.405 82.3971 408.433 95.709 395.535 100.328C395.519 100.357 392.504 119.865 396.919 130.327H396.926Z" fill="#F5A011"/>
<path d="M366.069 169.862C366.069 169.862 358.178 172.654 356.012 174.01C353.847 175.365 348.865 182.186 348.304 184.581C347.744 186.975 347.087 194.001 347.494 195.178C347.904 196.354 353.943 191.844 355.285 187.6C356.627 183.356 360.078 182.212 359.946 182.443C359.815 182.67 358.05 188.107 358.421 188.341C358.793 188.575 360.401 188.982 361.859 185.95C363.317 182.917 366.203 180.699 365.655 177.564C365.111 174.429 366.065 169.865 366.065 169.865L366.069 169.862Z" fill="#FF7955"/>
<path d="M427.894 175.308C427.439 178.536 435.848 185.831 449.285 189.267C460.494 166.958 439.183 115.887 439.183 115.887L416.098 164.756C420.97 171.336 428.124 173.673 427.897 175.308H427.894Z" fill="#DC8B02"/>
<path d="M408.562 153.671C411.029 157.749 413.676 161.489 416.094 164.759C416.171 164.865 416.248 164.964 416.322 165.07C419.49 163.849 422.633 161.412 424.216 159.172C427.852 154.034 428.153 123.15 428.153 123.15C428.153 123.15 413.266 141.549 408.562 153.671Z" fill="#DC8B02"/>
<path d="M363.033 170.554C363.033 170.554 399.039 160.47 417.521 156.056C415.894 134.241 410.556 68.2775 444.134 94.6833C444.134 94.6833 446.671 165.374 430.4 179.689C430.4 179.689 378.167 180.795 368.223 180.186C368.223 180.186 365.301 178.673 364.574 177.664C362.251 174.436 363.033 170.554 363.033 170.554Z" fill="#F5A011"/>
<path d="M67.4037 276.392L66.0742 276.273C66.5836 266.596 73.9008 261.183 73.9008 261.183C79.0267 256.637 80.6894 251.65 80.6894 251.65C80.6894 251.65 72.0427 241.556 80.1576 235.145C80.1576 235.145 86.0845 231.555 90.9188 231.847C90.9188 231.847 84.0693 243.335 86.2863 244.479C88.5 245.624 92.9948 231.126 92.9948 231.126C92.9948 231.126 106.482 229.818 110.823 231.905C110.823 231.905 99.2933 241.345 101.722 241.909C104.15 242.47 116.606 233.203 116.606 233.203C116.606 233.203 129.161 235.341 128.492 243.002C127.822 250.663 123.497 253.031 121.594 252.826C119.694 252.621 108.571 248.374 108.331 249.932C108.087 251.49 114.783 256.583 119.47 256.823C119.47 256.823 110.618 266.59 104.736 263.769C98.8544 260.952 98.3514 256.484 94.6864 254.807C91.0181 253.131 87.8881 253.137 89.4035 254.846C90.9188 256.554 97.5537 258.214 99.6521 261.926C101.75 265.638 103.631 268.141 97.5441 267.225C91.4571 266.308 81.5641 261.853 81.1316 256.75C81.1123 256.525 81.0963 256.317 81.0771 256.112C81.0675 256.516 81.1316 256.75 81.1316 256.75C79.8629 256.977 77.2263 259.314 75.3201 261.144C75.0253 261.465 74.5928 261.897 73.9745 262.471C73.7406 262.705 73.5484 262.904 73.4043 263.055C69.5406 267.289 67.4102 276.392 67.4102 276.392H67.4037Z" fill="#DC8B02"/>
<path d="M50.4558 238.953C50.4558 238.953 64.2124 231.245 57.7922 220.785C57.7922 220.785 52.6567 214.362 47.1528 212.711C47.1528 212.711 50.0873 228.312 47.1528 228.677C44.2182 229.046 45.1344 211.06 45.1344 211.06C45.1344 211.06 30.6442 204.085 24.9576 204.637C24.9576 204.637 33.944 219.869 31.0094 219.503C28.0748 219.135 17.9864 203.72 17.9864 203.72C17.9864 203.72 3.12767 200.967 0.744128 209.775C-1.63942 218.583 2.21142 222.988 4.41235 223.539C6.61329 224.09 20.7384 223.907 20.3699 225.741C20.0047 227.578 10.4641 230.514 5.146 228.86C5.146 228.86 11.0152 243.358 18.72 242.624C26.4249 241.89 28.8084 237.117 33.5787 236.751C38.349 236.386 41.8314 237.668 39.4479 238.953C37.0644 240.239 28.9943 239.373 25.1402 242.649C21.2894 245.925 18.169 247.944 25.3228 249.413C32.4767 250.881 45.3171 249.964 47.8832 244.457L50.4526 238.95L50.4558 238.953Z" fill="#F5A011"/>
<path d="M7.53445 212.525C7.53445 212.525 46.0524 225.004 50.4543 238.95C50.4543 238.95 50.2717 245.191 54.1225 252.345C54.1225 252.345 60.0621 261.372 56.6758 272.356L55.1477 271.946C55.1477 271.946 56.4836 261.048 53.9623 254.733C53.8598 254.499 53.7092 254.166 53.5202 253.756C53.0653 252.861 52.7577 252.204 52.5623 251.727C51.1879 248.906 49.208 245.226 47.8849 244.454C47.8849 244.454 56.506 232.341 7.53125 212.522L7.53445 212.525Z" fill="#DC8B02"/>
<path d="M72.3433 228.321C72.3433 228.321 54.2104 218.16 62.6713 204.371C62.6713 204.371 69.4407 195.905 76.6939 193.726C76.6939 193.726 72.8238 214.288 76.6939 214.772C80.5639 215.256 79.3529 191.549 79.3529 191.549C79.3529 191.549 98.4533 182.356 105.95 183.084C105.95 183.084 94.1027 203.162 97.9696 202.678C101.84 202.194 115.135 181.876 115.135 181.876C115.135 181.876 134.719 178.247 137.862 189.86C141.005 201.473 135.927 207.278 133.028 208.002C130.125 208.727 111.508 208.486 111.992 210.906C112.476 213.327 125.047 217.195 132.06 215.019C132.06 215.019 124.323 234.129 114.167 233.161C104.012 232.193 100.869 225.904 94.5833 225.42C88.2976 224.936 83.7035 226.629 86.8464 228.324C89.9892 230.017 100.629 228.879 105.706 233.197C110.784 237.514 114.895 240.178 105.466 242.111C96.0377 244.047 79.1127 242.835 75.7264 235.578L72.3401 228.321H72.3433Z" fill="#F5A011"/>
<path d="M67.5044 245.983C72.5822 236.549 72.3419 228.324 72.3419 228.324C78.1438 209.938 128.919 193.489 128.919 193.489C64.3648 219.615 75.7282 235.581 75.7282 235.581C73.9886 236.597 71.3808 241.438 69.5707 245.153C69.3144 245.784 68.9044 246.659 68.2989 247.848C68.0522 248.387 67.8568 248.826 67.719 249.13C64.3968 257.452 66.1556 271.821 66.1556 271.821L64.1405 272.363C59.6778 257.881 67.5076 245.983 67.5076 245.983H67.5044Z" fill="#DC8B02"/>
<path d="M107.249 268.225C107.249 287.851 91.3457 303.763 71.7295 303.763C67.632 303.763 63.7011 303.07 60.0393 301.791C46.1641 296.954 36.207 283.752 36.207 268.222H107.249V268.225Z" fill="#131F2D"/>
<path d="M107.744 305.574H35.7188C35.7188 304.362 36.2089 303.266 37.0034 302.471C37.7947 301.679 38.8936 301.186 40.1046 301.186H103.361C105.78 301.186 107.744 303.147 107.744 305.57V305.574Z" fill="#131F2D"/>
<path d="M108.061 268.225H35.043V269.315H108.061V268.225Z" fill="#131F2D"/>
<path d="M481.112 208.736H399.001C396.123 208.736 393.789 211.071 393.789 213.952V227.85C393.789 230.73 396.123 233.065 399.001 233.065H481.112C483.991 233.065 486.324 230.73 486.324 227.85V213.952C486.324 211.071 483.991 208.736 481.112 208.736Z" fill="#B8C1C9"/>
<path d="M523.641 111.499L509.939 109.226C507.11 108.758 504.412 110.688 503.941 113.518L490.511 194.566C490.044 197.396 491.972 200.095 494.801 200.566L508.503 202.839C511.332 203.307 514.03 201.377 514.501 198.547L527.93 117.499C528.398 114.669 526.47 111.97 523.641 111.499Z" fill="#B8C1C9"/>
<path d="M466.559 233.065L470.259 247.092H470.262L485.672 305.478H487.293L478.387 257.041C478.377 256.993 478.364 256.945 478.358 256.894L473.953 232.94L466.559 233.065Z" fill="#B05638"/>
<path d="M466.558 233.065L470.258 247.092H470.261C470.473 247.201 477.213 250.685 478.354 256.894L473.949 232.94L466.555 233.065H466.558Z" fill="#B05638"/>
<path d="M393.789 305.478H395.41L407.965 257.92V257.91L410.82 247.095H410.823L414.523 233.065L407.129 232.94L404.608 246.637L402.724 256.894C402.715 256.945 402.702 256.993 402.695 257.041L393.789 305.478Z" fill="#B05638"/>
<path d="M418.816 251.436C418.816 251.436 418.833 251.436 418.842 251.42C418.878 251.358 418.868 251.371 418.816 251.436Z" fill="#E8C6A7"/>
<path d="M404.613 246.637C405.977 248.624 407.858 252.358 407.967 257.913L410.821 247.098H410.825L414.525 233.068L407.131 232.943L404.609 246.64L404.613 246.637Z" fill="#B05638"/>
<path d="M514.371 307L17.0239 307C16.6908 307 16.4185 306.728 16.4185 306.394V306.083C16.4185 305.75 16.6908 305.477 17.0239 305.477L514.371 305.477C514.704 305.477 514.977 305.75 514.977 306.083V306.394C514.977 306.728 514.704 307 514.371 307Z" fill="#2E3552"/>
<path d="M285.203 234.546L288.894 248.531H288.897L304.262 306.74H305.877L296.996 258.448C296.986 258.4 296.973 258.352 296.967 258.301L292.575 234.418L285.203 234.543V234.546Z" fill="#B05638"/>
<path d="M285.203 234.546L288.894 248.531H288.897C289.108 248.64 295.827 252.115 296.967 258.304L292.575 234.421L285.203 234.546Z" fill="#B05638"/>
<path d="M166.589 306.74H168.204L180.721 259.327V259.317L183.565 248.534H183.569L187.259 234.546L179.888 234.421L177.376 248.076L175.495 258.304C175.486 258.355 175.473 258.404 175.467 258.452L166.586 306.744L166.589 306.74Z" fill="#B05638"/>
<path d="M177.375 248.076C178.737 250.057 180.611 253.778 180.72 259.317L183.565 248.534H183.568L187.258 234.546L179.887 234.421L177.375 248.076Z" fill="#B05638"/>
<path d="M319.16 235.796L158.342 235.796C156.698 235.796 155.365 234.463 155.365 232.818V224.161C155.365 222.516 156.698 221.183 158.342 221.183L319.16 221.183C320.804 221.183 322.137 222.516 322.137 224.161V232.818C322.137 234.463 320.804 235.796 319.16 235.796Z" fill="#B05638"/>
<path d="M299.458 217.74C301.323 217.74 302.838 219.253 302.838 221.122H260.453V217.74H299.458Z" fill="#016EB9"/>
<path d="M260.571 174.936H195.043L210.76 221.119H276.715L260.571 174.936Z" fill="#016EB9"/>
<path d="M259.606 174.933L275.75 221.119H209.795L194.078 174.933H259.606Z" fill="#00A3FE"/>
<path d="M231.862 194.405C233.627 194.405 235.386 195.835 235.793 197.601C236.2 199.367 235.101 200.797 233.336 200.797C231.571 200.797 229.812 199.367 229.405 197.601C228.998 195.835 230.097 194.405 231.862 194.405Z" fill="#016EB9"/>
<path d="M213.262 55.613C216.174 69.3705 221.976 82.6278 232.484 92.0548C235.867 95.5807 244.863 101.549 256.656 103.972C268.103 106.335 281.805 105.399 293.105 102.988C300.72 101.363 308.549 98.7797 315.348 94.9909C328.803 87.5064 337.293 75.8805 333.586 59.8601C327.826 34.9705 293.056 8.32112 262.006 1.78538C216.623 -7.7698 206.278 22.6555 213.262 55.613Z" fill="#D0EEFF"/>
<mask id="mask0_1095_26235" style="mask-type:luminance" maskUnits="userSpaceOnUse" x="191" y="0" width="144" height="106">
<path d="M191.625 51.7826L194.082 81.1726L230.037 89.7053C230.822 90.513 231.639 91.2951 232.485 92.0548C235.868 95.5807 244.864 101.549 256.657 103.972C268.103 106.335 281.806 105.399 293.105 102.988C300.72 101.363 308.55 98.7796 315.348 94.9909C328.804 87.5064 337.294 75.8805 333.587 59.8601C327.827 34.9705 293.057 8.32111 262.007 1.78537C220.727 -6.90436 208.435 17.4788 211.805 46.7598L191.625 51.7826Z" fill="white"/>
</mask>
<g mask="url(#mask0_1095_26235)">
<path d="M342.986 76.2619H204.926L210.532 55.5457H342.986V76.2619Z" fill="#131F2D"/>
<path d="M240.449 50.8851C242.519 50.8081 244.668 50.7665 246.905 50.7665C246.905 50.7665 259.271 40.0285 273.575 36.3744C258.867 40.0093 240.449 50.8851 240.449 50.8851Z" fill="#131F2D"/>
<path d="M352.447 58.9465V47.0931C352.447 47.0931 338.546 45.5032 330.14 42.4582C310.681 35.307 300.22 35.1724 282.546 35.1724C269.129 35.1724 255.539 44.1634 249.772 48.4906C247.827 49.9491 245.473 50.7568 243.041 50.8081C221.813 51.2729 208.694 55.5136 202.178 58.376C199.125 59.7158 197.158 62.7449 197.158 66.0817V70.0723C196.719 70.0723 196.363 70.4281 196.363 70.8673V77.4896C196.363 77.9287 196.719 78.2845 197.158 78.2845H209.825C208.569 76.0343 207.877 73.4284 207.948 70.6525C208.146 62.7481 214.599 56.3117 222.499 56.1354C230.88 55.9495 237.729 62.6904 237.729 71.034C237.729 73.6656 237.044 76.1369 235.846 78.2845H313.778C312.523 76.0343 311.831 73.4284 311.901 70.6525C312.1 62.7481 318.552 56.3117 326.452 56.1354C334.833 55.9495 341.683 62.6904 341.683 71.034C341.683 73.6656 340.997 76.1369 339.799 78.2845H342.91C353.68 78.2845 355.205 67.2645 355.305 61.8634C355.334 60.2607 354.042 58.9465 352.441 58.9465H352.447Z" fill="#00A3FE"/>
<path d="M275.725 37.3104C263.429 40.4228 250.246 51.0646 250.246 51.0646L285.144 50.3177C286.512 50.2889 287.745 49.4811 288.322 48.2407L293.669 36.6949H280.729C279.041 36.6949 277.362 36.8969 275.725 37.3136V37.3104Z" fill="#131F2D"/>
<path d="M295.72 36.9578L290.822 48.1861C290.444 49.0484 291.078 50.0164 292.02 50.0164C296.963 50.0164 309.945 49.8337 317.416 47.9618C319.21 47.513 319.812 45.2532 318.479 43.9711C315.442 41.0574 308.839 36.9578 295.724 36.9578H295.72Z" fill="#131F2D"/>
<path d="M198.07 62.2736H203.171C203.171 62.2736 211.51 54.4878 224.888 52.2793C224.888 52.2793 200.169 55.0039 198.07 62.2736Z" fill="black"/>
<path d="M285.508 53.616H278.726C278.351 53.616 278.047 53.3115 278.047 52.9365C278.047 52.5615 278.351 52.257 278.726 52.257H285.508C285.883 52.257 286.187 52.5615 286.187 52.9365C286.187 53.3115 285.883 53.616 285.508 53.616Z" fill="#131F2D"/>
<path d="M315.497 53.616H308.714C308.34 53.616 308.035 53.3115 308.035 52.9365C308.035 52.5615 308.34 52.257 308.714 52.257H315.497C315.871 52.257 316.176 52.5615 316.176 52.9365C316.176 53.3115 315.871 53.616 315.497 53.616Z" fill="#131F2D"/>
<path d="M309.755 58.0203H248.603C246.076 58.0203 244.519 60.7897 245.832 62.9501L249.769 69.4282C250.625 70.8385 252.499 71.2232 253.841 70.268C259.07 66.5369 274.13 58.7992 309.755 58.0235V58.0203Z" fill="#364154"/>
<path d="M339.508 74.0808C341.151 67.1149 336.839 60.1352 329.877 58.4912C322.915 56.8471 315.939 61.1612 314.296 68.127C312.652 75.0928 316.964 82.0725 323.926 83.7166C330.889 85.3607 337.865 81.0466 339.508 74.0808Z" fill="#364154"/>
<path d="M334.941 71.111C334.941 75.5472 331.347 79.1404 326.916 79.1404C322.485 79.1404 318.891 75.544 318.891 71.111C318.891 66.678 322.485 63.0815 326.916 63.0815C331.347 63.0815 334.941 66.678 334.941 71.111ZM328.015 67.2325C328.62 67.4056 329.168 67.7133 329.623 68.1236L332.404 66.4055C331.305 65.1234 329.764 64.2291 328.015 63.9598V67.2325ZM321.428 66.4055L324.209 68.1236C324.664 67.7133 325.212 67.4024 325.817 67.2325V63.9598C324.068 64.2259 322.53 65.1202 321.428 66.4055ZM323.036 72.1944C322.94 71.8482 322.889 71.486 322.889 71.111C322.889 70.7359 322.946 70.3449 323.049 69.9891L320.268 68.271C319.897 69.1429 319.688 70.1013 319.688 71.111C319.688 72.1207 319.89 73.0534 320.252 73.9157L323.036 72.1944ZM325.817 74.9895C325.199 74.8132 324.641 74.4958 324.183 74.0727L321.406 75.7908C322.508 77.089 324.058 77.9961 325.817 78.2621V74.9895ZM326.916 72.9348C327.922 72.9348 328.739 72.1175 328.739 71.111C328.739 70.1045 327.922 69.2871 326.916 69.2871C325.91 69.2871 325.093 70.1045 325.093 71.111C325.093 72.1175 325.91 72.9348 326.916 72.9348ZM332.429 75.7876L329.652 74.0695C329.194 74.4926 328.636 74.8132 328.018 74.9863V78.2589C329.78 77.9897 331.327 77.0858 332.429 75.7876ZM333.583 73.9157C333.945 73.0534 334.147 72.1046 334.147 71.111C334.147 70.1173 333.942 69.1429 333.567 68.271L330.786 69.9891C330.888 70.3449 330.946 70.7199 330.946 71.111C330.946 71.502 330.895 71.8482 330.799 72.1944L333.583 73.9157Z" fill="#00A3FE"/>
<path d="M222.851 84.0895C230.004 84.0895 235.803 78.2874 235.803 71.1302C235.803 63.973 230.004 58.1709 222.851 58.1709C215.697 58.1709 209.898 63.973 209.898 71.1302C209.898 78.2874 215.697 84.0895 222.851 84.0895Z" fill="#364154"/>
<path d="M230.879 71.1303C230.879 75.5665 227.284 79.1597 222.853 79.1597C218.423 79.1597 214.828 75.5633 214.828 71.1303C214.828 66.6972 218.423 63.1008 222.853 63.1008C227.284 63.1008 230.879 66.6972 230.879 71.1303ZM223.952 67.2518C224.558 67.4249 225.106 67.7326 225.56 68.1429L228.341 66.4248C227.242 65.1426 225.701 64.2484 223.952 63.9791V67.2518ZM217.365 66.4248L220.146 68.1429C220.598 67.7326 221.149 67.4217 221.754 67.2518V63.9791C220.005 64.2451 218.468 65.1394 217.365 66.4248ZM218.974 72.2137C218.878 71.8675 218.826 71.5053 218.826 71.1303C218.826 70.7552 218.884 70.3642 218.987 70.0084L216.206 68.2903C215.834 69.1622 215.626 70.1206 215.626 71.1303C215.626 72.14 215.828 73.0727 216.19 73.935L218.974 72.2137ZM221.754 75.0087C221.136 74.8325 220.579 74.5151 220.121 74.092L217.343 75.8101C218.445 77.1083 219.996 78.0154 221.754 78.2814V75.0087ZM222.853 72.9541C223.859 72.9541 224.676 72.1367 224.676 71.1303C224.676 70.1238 223.859 69.3064 222.853 69.3064C221.847 69.3064 221.03 70.1238 221.03 71.1303C221.03 72.1367 221.847 72.9541 222.853 72.9541ZM228.367 75.8069L225.589 74.0888C225.131 74.5119 224.574 74.8325 223.955 75.0055V78.2782C225.717 78.009 227.268 77.1051 228.367 75.8069ZM229.52 73.935C229.882 73.0727 230.084 72.1239 230.084 71.1303C230.084 70.1366 229.879 69.1622 229.504 68.2903L226.723 70.0084C226.826 70.3642 226.884 70.7392 226.884 71.1303C226.884 71.5213 226.832 71.8707 226.736 72.2137L229.52 73.935Z" fill="#00A3FE"/>
</g>
<path d="M69.8557 117.88C72.0566 128.279 76.2022 138.792 83.0709 146.847C89.5519 154.598 98.596 160.185 109.899 162.509C120.429 164.682 133.061 163.832 143.534 161.598C165.873 156.835 186.021 143.969 180.889 121.797C175.574 98.8277 143.489 74.2362 114.835 68.2069C72.9536 59.3889 63.4098 87.4647 69.8557 117.88Z" fill="#FFEFD5"/>
<mask id="mask1_1095_26235" style="mask-type:luminance" maskUnits="userSpaceOnUse" x="68" y="51" width="145" height="113">
<path d="M69.8564 117.88C72.0573 128.279 76.2029 138.792 83.0716 146.847C89.5526 154.598 98.5967 160.185 109.899 162.509C120.43 164.682 133.062 163.832 143.535 161.598C151.912 159.813 159.983 156.886 166.524 152.758C167.787 151.96 212.248 150.373 212.248 150.373L183.985 51.1576L138.704 77.0153C130.909 72.9509 122.743 69.8737 114.839 68.2101C72.9575 59.3922 63.4137 87.4679 69.8596 117.884L69.8564 117.88Z" fill="white"/>
</mask>
<g mask="url(#mask1_1095_26235)">
<path d="M89.6896 112.438L90.4489 111.819L80.29 98.5391L76.625 98.3853L89.6896 112.438Z" fill="#F5A011"/>
<path d="M102.958 112.438L103.586 111.819L95.183 98.5392L92.1523 98.3854L102.958 112.438Z" fill="#F5A011"/>
<path d="M164.977 77.8262C164.977 75.3067 162.984 73.2617 160.523 73.2617C158.063 73.2617 156.07 75.3035 156.07 77.8262C156.07 80.3488 158.063 82.3906 160.523 82.3906C162.984 82.3906 164.977 80.3488 164.977 77.8262Z" fill="#F5A011"/>
<path d="M108.477 139.343H153.764C154.257 139.343 154.658 138.936 154.658 138.443V134.16C154.658 133.664 154.254 133.26 153.764 133.26H113.759C113.266 133.26 112.866 133.667 112.866 134.16L108.477 139.343Z" fill="#F5A011"/>
<path d="M95.5166 149.491C102.973 148.96 108.588 142.482 108.057 135.022C107.527 127.561 101.052 121.943 93.5952 122.474C86.1386 123.005 80.5239 129.483 81.0544 136.944C81.585 144.404 88.0599 150.022 95.5166 149.491Z" fill="#131F2D"/>
<path d="M101.444 135.991C101.444 132.179 98.3552 129.086 94.546 129.086C90.7368 129.086 87.6484 132.176 87.6484 135.991C87.6484 139.805 90.7368 142.892 94.546 142.892C98.3552 142.892 101.444 139.802 101.444 135.991Z" fill="#657285"/>
<path d="M150.12 135.991H154.596C154.596 129.817 158.207 124.471 163.425 121.951C165.463 120.97 167.747 120.419 170.156 120.419C178.226 120.419 184.88 126.599 185.646 134.478C185.729 135.334 186.437 135.991 187.299 135.991H187.386C188.981 135.991 190.208 134.574 189.971 132.994C188.734 124.788 182.513 118.191 174.497 116.416C173.1 116.105 171.646 115.941 170.159 115.941C168.051 115.941 166.017 116.268 164.104 116.877C156.002 119.448 150.117 127.045 150.117 135.991H150.12Z" fill="#F5A011"/>
<path d="M143.344 133.26L150.126 135.991C154.823 126.855 159.618 122.371 163.719 120.159C171.097 116.178 176.233 119.55 174.506 116.415L161.848 89.6924C160.663 88.0416 159.116 86.7915 157.389 85.971C155.508 85.0831 153.416 84.708 151.334 84.9004C148.918 85.1215 147.339 87.5608 148.108 89.8623C149.764 94.821 150.401 99.8053 150.401 104.536C150.401 120.288 143.344 133.256 143.344 133.256V133.26Z" fill="#F5A011"/>
<path d="M150.256 87.9935L155.363 86.0414C156.058 86.0414 157.384 86.6697 157.384 85.9741L156.628 73.4924C156.628 72.7968 156.058 72.2295 155.366 72.2295H152.072C151.377 72.2295 148.59 73.5629 148.789 76.0599L147.914 88.641C147.914 89.3365 149.564 87.9935 150.259 87.9935H150.256Z" fill="#F5A011"/>
<path d="M63.2517 99.0039H97.2716C98.2607 99.0039 99.0625 98.2017 99.0625 97.2121V95.9845C99.0625 94.9949 98.2607 94.1927 97.2716 94.1927H63.2517C62.2626 94.1927 61.4608 94.9949 61.4608 95.9845V97.2121C61.4608 98.2017 62.2626 99.0039 63.2517 99.0039Z" fill="#F5A011"/>
<path d="M171.821 149.427C179.24 148.513 184.514 141.754 183.601 134.331C182.687 126.908 175.932 121.631 168.512 122.545C161.093 123.459 155.819 130.218 156.732 137.641C157.646 145.065 164.401 150.341 171.821 149.427Z" fill="#131F2D"/>
<path d="M163.266 135.991C163.266 137.154 163.554 138.25 164.06 139.209C164.092 139.273 164.127 139.334 164.163 139.395C165.345 141.485 167.591 142.895 170.163 142.895C173.976 142.895 177.064 139.805 177.064 135.991C177.064 133.119 175.311 130.657 172.816 129.618C172.79 129.606 172.765 129.596 172.736 129.586C171.941 129.266 171.073 129.089 170.163 129.089C166.354 129.089 163.266 132.179 163.266 135.991Z" fill="#657285"/>
<path d="M120.591 108.716C120.591 108.716 115.315 120.477 127.104 133.26H99.8984L103.589 105.274L120.594 108.716H120.591Z" fill="#F5A011"/>
<path d="M67.2603 137.555C67.2603 138.049 67.4621 138.494 67.7857 138.821C68.1093 139.145 68.5578 139.347 69.048 139.347H112.464C113.448 139.347 114.255 138.539 114.255 137.555L113.679 109.143L99.0569 108.248C79.5817 108.248 67.2539 118.07 67.2539 137.555H67.2603Z" fill="#F5A011"/>
<path d="M156.07 77.5665C156.07 78.0056 156.112 78.4383 156.189 78.855C156.794 82.1085 159.649 84.5734 163.074 84.5734V70.5596C159.207 70.5596 156.07 73.6976 156.07 77.5665Z" fill="#B05638"/>
<path d="M145.014 78.5122C145.039 78.5122 145.331 78.4545 145.36 78.4513L153.065 76.3133C153.369 76.2524 153.58 75.8741 153.539 75.4671C153.494 75.06 153.209 74.7779 152.904 74.8356L145.18 76.3453C144.873 76.4062 144.633 76.871 144.559 77.2717C144.437 77.9448 144.741 78.5154 145.017 78.5154L145.014 78.5122Z" fill="#131F2D"/>
<path d="M163.635 120.701C163.564 121.134 163.497 121.55 163.433 121.954C163.452 121.945 163.471 121.935 163.494 121.925C165.518 120.961 167.78 120.422 170.167 120.422C178.237 120.422 184.891 126.602 185.657 134.481C185.74 135.337 186.448 135.994 187.31 135.994H187.396C188.992 135.994 190.219 134.577 189.982 132.997C188.752 124.817 182.565 118.239 174.588 116.438C174.562 116.431 174.534 116.425 174.508 116.419L161.85 89.6955C160.665 88.0448 159.117 86.7947 157.391 85.9741C159.55 89.6058 165.499 101.222 164.115 116.877C164.019 117.951 163.891 119.047 163.724 120.159C163.695 120.339 163.67 120.518 163.638 120.701H163.635Z" fill="#B05638"/>
<path d="M92.8444 101.831H120.588C121.322 101.831 121.918 102.427 121.918 103.161V107.383C121.918 108.117 121.322 108.716 120.585 108.716H92.8412C92.1076 108.716 91.5117 108.12 91.5117 107.386V103.164C91.5117 102.43 92.1076 101.834 92.8412 101.834L92.8444 101.831Z" fill="#B05638"/>
<path d="M70.7031 139.347H112.473C112.473 139.347 115.023 123.874 105.62 118.65C103.355 117.39 100.513 116.957 97.4123 117.262C87.6474 118.22 75.3485 126.5 70.7031 139.347Z" fill="#DC8B02"/>
<path d="M163.634 120.701C163.563 121.134 163.496 121.55 163.432 121.954C163.451 121.945 163.471 121.935 163.493 121.926C165.992 119.614 171.275 117.566 174.584 116.435C174.558 116.428 174.53 116.422 174.504 116.415L161.846 89.6924C160.661 88.0416 159.114 86.7915 157.387 85.9709C159.546 89.6026 165.495 101.219 164.111 116.874C164.015 117.948 163.887 119.044 163.72 120.156C163.692 120.336 163.666 120.515 163.634 120.698V120.701Z" fill="#B05638"/>
</g>
<path d="M64.3343 111.172C64.3343 111.172 60.1663 87.4102 69.6108 75.4606C79.0552 63.511 50.7218 78.9352 64.3343 111.172Z" fill="#FFEFD4"/>
<path d="M325.858 93.2472C325.858 93.2472 290.441 114.092 254.47 109.367C218.499 104.642 279.181 137.709 325.858 93.2472Z" fill="#D0EEFF"/>
</g>
<defs>
<clipPath id="clip0_1095_26235">
<rect width="528" height="307" fill="white"/>
</clipPath>
</defs>
</svg>
